<?xml version="1.0" encoding="UTF-8"?>
<!-- Generator: visioncortex VTracer 0.6.2 -->
<svg version="1.1" xmlns="http://www.w3.org/2000/svg" width="1280" height="1280">
<path d="M0 0 C2.95877611 1.28972292 5.09206397 2.85108888 7.4375 5.0625 C7.4375 5.7225 7.4375 6.3825 7.4375 7.0625 C8.015 7.330625 8.5925 7.59875 9.1875 7.875 C11.49300043 9.09179189 13.45806192 10.36583879 15.4375 12.0625 C15.4375 12.7225 15.4375 13.3825 15.4375 14.0625 C16.01870605 14.321521 16.59991211 14.58054199 17.19873047 14.84741211 C19.60826788 16.15518394 21.28339109 17.60719239 23.2578125 19.50390625 C23.95777344 20.16970703 24.65773438 20.83550781 25.37890625 21.52148438 C26.09949219 22.21564453 26.82007813 22.90980469 27.5625 23.625 C29.00065539 25.00333831 30.44067056 26.37973957 31.8828125 27.75390625 C32.83438232 28.66958374 32.83438232 28.66958374 33.80517578 29.60375977 C35.38904375 31.14766321 35.38904375 31.14766321 37.4375 32.0625 C37.4375 32.7225 37.4375 33.3825 37.4375 34.0625 C37.98535156 34.29195312 38.53320312 34.52140625 39.09765625 34.7578125 C42.11189878 36.43854205 44.35527956 38.58203318 46.875 40.9375 C49.61945321 43.49491815 52.31334067 45.9667832 55.28515625 48.2578125 C55.99542969 48.85335937 56.70570313 49.44890625 57.4375 50.0625 C57.4375 50.7225 57.4375 51.3825 57.4375 52.0625 C58.30375 52.4646875 58.30375 52.4646875 59.1875 52.875 C61.49300043 54.09179189 63.45806192 55.36583879 65.4375 57.0625 C65.4375 57.7225 65.4375 58.3825 65.4375 59.0625 C66.30930908 59.45103149 66.30930908 59.45103149 67.19873047 59.84741211 C69.60826788 61.15518394 71.28339109 62.60719239 73.2578125 64.50390625 C73.95777344 65.16970703 74.65773438 65.83550781 75.37890625 66.52148438 C76.09949219 67.21564453 76.82007813 67.90980469 77.5625 68.625 C79.00065539 70.00333831 80.44067056 71.37973957 81.8828125 72.75390625 C82.83438232 73.66958374 82.83438232 73.66958374 83.80517578 74.60375977 C85.38904375 76.14766321 85.38904375 76.14766321 87.4375 77.0625 C87.4375 77.7225 87.4375 78.3825 87.4375 79.0625 C87.98535156 79.29195313 88.53320312 79.52140625 89.09765625 79.7578125 C92.11189878 81.43854205 94.35527956 83.58203318 96.875 85.9375 C99.61945321 88.49491815 102.31334067 90.9667832 105.28515625 93.2578125 C105.99542969 93.85335937 106.70570313 94.44890625 107.4375 95.0625 C107.4375 95.7225 107.4375 96.3825 107.4375 97.0625 C108.30375 97.4646875 108.30375 97.4646875 109.1875 97.875 C111.49300043 99.09179189 113.45806192 100.36583879 115.4375 102.0625 C115.4375 102.7225 115.4375 103.3825 115.4375 104.0625 C116.01870605 104.321521 116.59991211 104.58054199 117.19873047 104.84741211 C119.60826788 106.15518394 121.28339109 107.60719239 123.2578125 109.50390625 C123.95777344 110.16970703 124.65773438 110.83550781 125.37890625 111.52148438 C126.09949219 112.21564453 126.82007813 112.90980469 127.5625 113.625 C129.00065539 115.00333831 130.44067056 116.37973957 131.8828125 117.75390625 C132.83438232 118.66958374 132.83438232 118.66958374 133.80517578 119.60375977 C135.38904375 121.14766321 135.38904375 121.14766321 137.4375 122.0625 C137.4375 122.7225 137.4375 123.3825 137.4375 124.0625 C137.98535156 124.29195313 138.53320312 124.52140625 139.09765625 124.7578125 C142.11189878 126.43854205 144.35527956 128.58203318 146.875 130.9375 C149.61945321 133.49491815 152.31334067 135.9667832 155.28515625 138.2578125 C155.99542969 138.85335937 156.70570313 139.44890625 157.4375 140.0625 C157.4375 140.7225 157.4375 141.3825 157.4375 142.0625 C158.30375 142.4646875 158.30375 142.4646875 159.1875 142.875 C161.49300043 144.09179189 163.45806192 145.36583879 165.4375 147.0625 C165.4375 147.7225 165.4375 148.3825 165.4375 149.0625 C166.01870605 149.321521 166.59991211 149.58054199 167.19873047 149.84741211 C169.60826788 151.15518394 171.28339109 152.60719239 173.2578125 154.50390625 C173.95777344 155.16970703 174.65773438 155.83550781 175.37890625 156.52148438 C176.45978516 157.56272461 176.45978516 157.56272461 177.5625 158.625 C179.00065539 160.00333831 180.44067056 161.37973957 181.8828125 162.75390625 C182.51719238 163.36435791 183.15157227 163.97480957 183.80517578 164.60375977 C185.38904375 166.14766321 185.38904375 166.14766321 187.4375 167.0625 C187.4375 167.7225 187.4375 168.3825 187.4375 169.0625 C187.98535156 169.29195312 188.53320312 169.52140625 189.09765625 169.7578125 C192.11189878 171.43854205 194.35527956 173.58203318 196.875 175.9375 C199.61945321 178.49491815 202.31334067 180.9667832 205.28515625 183.2578125 C205.99542969 183.85335937 206.70570313 184.44890625 207.4375 185.0625 C207.4375 185.7225 207.4375 186.3825 207.4375 187.0625 C208.30375 187.4646875 208.30375 187.4646875 209.1875 187.875 C211.49300043 189.09179189 213.45806192 190.36583879 215.4375 192.0625 C215.4375 192.7225 215.4375 193.3825 215.4375 194.0625 C216.01870605 194.321521 216.59991211 194.58054199 217.19873047 194.84741211 C219.60826788 196.15518394 221.28339109 197.60719239 223.2578125 199.50390625 C223.95777344 200.16970703 224.65773438 200.83550781 225.37890625 201.52148438 C226.45978516 202.56272461 226.45978516 202.56272461 227.5625 203.625 C229.00065539 205.00333831 230.44067056 206.37973957 231.8828125 207.75390625 C232.51719238 208.36435791 233.15157227 208.97480957 233.80517578 209.60375977 C235.38904375 211.14766321 235.38904375 211.14766321 237.4375 212.0625 C237.4375 212.7225 237.4375 213.3825 237.4375 214.0625 C237.98535156 214.29195312 238.53320312 214.52140625 239.09765625 214.7578125 C242.11189878 216.43854205 244.35527956 218.58203318 246.875 220.9375 C249.61945321 223.49491815 252.31334067 225.9667832 255.28515625 228.2578125 C255.99542969 228.85335937 256.70570313 229.44890625 257.4375 230.0625 C257.4375 230.7225 257.4375 231.3825 257.4375 232.0625 C258.30375 232.4646875 258.30375 232.4646875 259.1875 232.875 C261.49300043 234.09179189 263.45806192 235.36583879 265.4375 237.0625 C265.4375 237.7225 265.4375 238.3825 265.4375 239.0625 C266.01870605 239.321521 266.59991211 239.58054199 267.19873047 239.84741211 C269.60826788 241.15518394 271.28339109 242.60719239 273.2578125 244.50390625 C273.95777344 245.16970703 274.65773438 245.83550781 275.37890625 246.52148438 C276.45978516 247.56272461 276.45978516 247.56272461 277.5625 248.625 C279.00065539 250.00333831 280.44067056 251.37973957 281.8828125 252.75390625 C282.51719238 253.36435791 283.15157227 253.97480957 283.80517578 254.60375977 C285.38904375 256.14766321 285.38904375 256.14766321 287.4375 257.0625 C287.4375 257.7225 287.4375 258.3825 287.4375 259.0625 C287.98535156 259.29195313 288.53320312 259.52140625 289.09765625 259.7578125 C292.11189878 261.43854205 294.35527956 263.58203318 296.875 265.9375 C299.61945321 268.49491815 302.31334067 270.9667832 305.28515625 273.2578125 C305.99542969 273.85335938 306.70570313 274.44890625 307.4375 275.0625 C307.4375 275.7225 307.4375 276.3825 307.4375 277.0625 C308.30375 277.4646875 308.30375 277.4646875 309.1875 277.875 C311.49300043 279.09179189 313.45806192 280.36583879 315.4375 282.0625 C315.4375 282.7225 315.4375 283.3825 315.4375 284.0625 C316.01870605 284.321521 316.59991211 284.58054199 317.19873047 284.84741211 C319.60826788 286.15518394 321.28339109 287.60719239 323.2578125 289.50390625 C323.95777344 290.16970703 324.65773438 290.83550781 325.37890625 291.52148438 C326.45978516 292.56272461 326.45978516 292.56272461 327.5625 293.625 C329.00065539 295.00333831 330.44067056 296.37973957 331.8828125 297.75390625 C332.51719238 298.36435791 333.15157227 298.97480957 333.80517578 299.60375977 C335.38904375 301.14766321 335.38904375 301.14766321 337.4375 302.0625 C337.4375 302.7225 337.4375 303.3825 337.4375 304.0625 C337.98535156 304.29195313 338.53320312 304.52140625 339.09765625 304.7578125 C342.11189878 306.43854205 344.35527956 308.58203318 346.875 310.9375 C349.61945321 313.49491815 352.31334067 315.9667832 355.28515625 318.2578125 C355.99542969 318.85335938 356.70570313 319.44890625 357.4375 320.0625 C357.4375 320.7225 357.4375 321.3825 357.4375 322.0625 C358.30375 322.4646875 358.30375 322.4646875 359.1875 322.875 C361.49300043 324.09179189 363.45806192 325.36583879 365.4375 327.0625 C365.4375 327.7225 365.4375 328.3825 365.4375 329.0625 C366.2728125 329.43375 366.2728125 329.43375 367.125 329.8125 C369.86160913 331.29174818 372.11400869 332.99717439 374.4375 335.0625 C374.4375 335.7225 374.4375 336.3825 374.4375 337.0625 C375.02273438 337.31902344 375.60796875 337.57554687 376.2109375 337.83984375 C378.62984608 339.16812162 380.16948872 340.62774801 382.0625 342.625 C384.48271959 345.20265389 384.48271959 345.20265389 387.4375 347.0625 C387.4375 347.7225 387.4375 348.3825 387.4375 349.0625 C387.98535156 349.29195313 388.53320312 349.52140625 389.09765625 349.7578125 C392.11189878 351.43854205 394.35527956 353.58203318 396.875 355.9375 C399.61945321 358.49491815 402.31334067 360.9667832 405.28515625 363.2578125 C405.99542969 363.85335938 406.70570313 364.44890625 407.4375 365.0625 C407.4375 365.7225 407.4375 366.3825 407.4375 367.0625 C408.30375 367.4646875 408.30375 367.4646875 409.1875 367.875 C411.49300043 369.09179189 413.45806192 370.36583879 415.4375 372.0625 C415.4375 372.7225 415.4375 373.3825 415.4375 374.0625 C416.2728125 374.43375 416.2728125 374.43375 417.125 374.8125 C419.86160913 376.29174818 422.11400869 377.99717439 424.4375 380.0625 C424.4375 380.7225 424.4375 381.3825 424.4375 382.0625 C425.02273438 382.31902344 425.60796875 382.57554687 426.2109375 382.83984375 C428.62984608 384.16812162 430.16948872 385.62774801 432.0625 387.625 C434.48271959 390.20265389 434.48271959 390.20265389 437.4375 392.0625 C437.4375 392.7225 437.4375 393.3825 437.4375 394.0625 C437.98535156 394.29195312 438.53320312 394.52140625 439.09765625 394.7578125 C442.11189878 396.43854205 444.35527956 398.58203318 446.875 400.9375 C449.61945321 403.49491815 452.31334067 405.9667832 455.28515625 408.2578125 C455.99542969 408.85335938 456.70570313 409.44890625 457.4375 410.0625 C457.4375 410.7225 457.4375 411.3825 457.4375 412.0625 C458.30375 412.4646875 458.30375 412.4646875 459.1875 412.875 C461.49300043 414.09179189 463.45806192 415.36583879 465.4375 417.0625 C465.4375 417.7225 465.4375 418.3825 465.4375 419.0625 C466.2728125 419.43375 466.2728125 419.43375 467.125 419.8125 C469.86160913 421.29174818 472.11400869 422.99717439 474.4375 425.0625 C474.4375 425.7225 474.4375 426.3825 474.4375 427.0625 C475.02273438 427.31902344 475.60796875 427.57554687 476.2109375 427.83984375 C478.62984608 429.16812162 480.16948872 430.62774801 482.0625 432.625 C484.48271959 435.20265389 484.48271959 435.20265389 487.4375 437.0625 C487.4375 437.7225 487.4375 438.3825 487.4375 439.0625 C487.98535156 439.29195312 488.53320312 439.52140625 489.09765625 439.7578125 C492.11189878 441.43854205 494.35527956 443.58203318 496.875 445.9375 C499.61945321 448.49491815 502.31334067 450.9667832 505.28515625 453.2578125 C505.99542969 453.85335938 506.70570312 454.44890625 507.4375 455.0625 C507.4375 455.7225 507.4375 456.3825 507.4375 457.0625 C508.015 457.330625 508.5925 457.59875 509.1875 457.875 C511.49300043 459.09179189 513.45806192 460.36583879 515.4375 462.0625 C515.4375 462.7225 515.4375 463.3825 515.4375 464.0625 C516.2728125 464.43375 516.2728125 464.43375 517.125 464.8125 C519.86160913 466.29174818 522.11400869 467.99717439 524.4375 470.0625 C524.4375 470.7225 524.4375 471.3825 524.4375 472.0625 C525.015 472.31 525.5925 472.5575 526.1875 472.8125 C528.76689979 474.24549988 530.49871592 475.84674676 532.4375 478.0625 C532.4375 478.7225 532.4375 479.3825 532.4375 480.0625 C530.13451344 481.21399328 528.84753902 481.18586988 526.28671265 481.18275452 C525.41730545 481.18412918 524.54789825 481.18550385 523.65214539 481.18692017 C522.69620987 481.18332489 521.74027435 481.17972961 520.75537109 481.17602539 C519.75046127 481.17617142 518.74555145 481.17631744 517.71018982 481.1764679 C514.37708402 481.17576929 511.04403358 481.16797933 507.7109375 481.16015625 C505.40451081 481.15829188 503.09808372 481.15686807 500.79165649 481.15586853 C494.71218783 481.15204482 488.63274294 481.14221576 482.55328369 481.13116455 C476.35323407 481.1209473 470.15318061 481.11637024 463.953125 481.11132812 C451.78123954 481.10059338 439.60937174 481.08351869 427.4375 481.0625 C427.4393986 481.98148294 427.4412972 482.90046587 427.44325334 483.84729677 C427.55518635 538.33489531 427.64095434 592.82248164 427.69282665 647.31017217 C427.69908005 653.85513776 427.70555167 660.40010312 427.7121582 666.94506836 C427.71346976 668.24803236 427.71478131 669.55099636 427.7161326 670.89344411 C427.73787873 691.98038945 427.77729594 713.0672665 427.82326398 734.15417136 C427.87005059 755.79736703 427.89780008 777.440527 427.90794247 799.08377117 C427.91479702 812.43475181 427.93643292 825.78553944 427.97708233 839.13646065 C428.00354785 848.29638783 428.01149233 857.45621548 428.00500689 866.6161781 C428.00180997 871.89803869 428.00664997 877.17956241 428.03352737 882.46136284 C428.05799355 887.30488264 428.05900138 892.14784145 428.04199447 896.99138796 C428.0398949 898.7359346 428.04612375 900.48051734 428.06191591 902.22499377 C428.17929084 916.0010928 426.38764092 928.73485661 418 940.1875 C417.27941406 941.20070313 416.55882812 942.21390625 415.81640625 943.2578125 C413.20408591 946.337691 410.66309411 948.63997678 407.4375 951.0625 C406.7775 951.0625 406.1175 951.0625 405.4375 951.0625 C405.4375 951.7225 405.4375 952.3825 405.4375 953.0625 C399.82352035 956.4672747 394.87149007 958.73132964 388.4375 960.0625 C387.4475 960.3925 386.4575 960.7225 385.4375 961.0625 C383.87119662 961.15369813 382.30127022 961.18803872 380.73231411 961.18834114 C379.75919039 961.19094889 378.78606667 961.19355664 377.78345436 961.19624341 C376.7118735 961.19401268 375.64029263 961.19178196 374.53623962 961.18948364 C372.83167008 961.19182363 372.83167008 961.19182363 371.09266478 961.19421089 C367.26480715 961.19821629 363.43698882 961.195033 359.60913086 961.19189453 C356.87305112 961.1926984 354.13697308 961.19499249 351.40089417 961.19720459 C344.72903414 961.20165776 338.05718535 961.20068787 331.38532489 961.19779195 C325.96493146 961.19553633 320.54454118 961.19522608 315.12414742 961.19631577 C314.35358091 961.196469 313.5830144 961.19662223 312.78909739 961.19678011 C311.22386745 961.19709982 309.65863751 961.19742404 308.09340758 961.1977527 C293.40693435 961.20060611 278.72046736 961.19732253 264.03399516 961.19195233 C251.421993 961.18748353 238.81000004 961.18826112 226.19799805 961.19287109 C211.56360633 961.19821776 196.92922008 961.20033237 182.29482752 961.19725883 C180.73556395 961.19694027 179.17630039 961.1966259 177.61703682 961.19631577 C176.46615242 961.19608435 176.46615242 961.19608435 175.29201783 961.19584826 C169.87525418 961.19498345 164.45849399 961.1964452 159.04173088 961.19879532 C152.44473656 961.2015945 145.84775415 961.20085251 139.2507612 961.19551457 C135.88246306 961.1928793 132.51420133 961.19240432 129.14590073 961.19516373 C125.50117257 961.19787537 121.85650122 961.1944939 118.21177673 961.18948364 C117.13796515 961.19171436 116.06415357 961.19394509 114.95780224 961.19624341 C113.98728627 961.19363566 113.01677029 961.19102791 112.01684475 961.18834114 C110.75367622 961.18809761 110.75367622 961.18809761 109.46498913 961.18784916 C107.4375 961.0625 107.4375 961.0625 105.4375 960.0625 C105.1075 837.6325 104.7775 715.2025 104.4375 589.0625 C35.1375 588.7325 -34.1625 588.4025 -105.5625 588.0625 C-105.53929687 614.82085938 -105.51609375 641.57921875 -105.4921875 669.1484375 C-105.48197485 686.04687526 -105.47225268 702.94531113 -105.46484375 719.84375 C-105.46092775 728.71614591 -105.45688671 737.58854175 -105.45263672 746.4609375 C-105.45210922 747.57301488 -105.45158172 748.68509226 -105.45103824 749.83086896 C-105.44232927 767.80658633 -105.42655595 785.78229097 -105.40819441 803.75800078 C-105.38952013 822.19303194 -105.37838852 840.62805641 -105.37432301 859.06309664 C-105.37157281 870.44710532 -105.36287301 881.83107802 -105.34666707 893.21507563 C-105.33613066 901.01155105 -105.33289175 908.80800775 -105.33549725 916.60448979 C-105.33678377 921.10895498 -105.33475162 925.6133571 -105.32408905 930.1178112 C-105.31441205 934.23575735 -105.31382861 938.35359754 -105.32070221 942.47154839 C-105.32155271 943.96686558 -105.31896874 945.46218916 -105.31273364 946.95749359 C-105.30478934 948.97910044 -105.31019427 951.00074693 -105.31640434 953.02235985 C-105.3156449 954.14861035 -105.31488546 955.27486085 -105.31410301 956.43524015 C-105.5625 959.0625 -105.5625 959.0625 -107.5625 961.0625 C-109.58078378 961.314349 -109.58078378 961.314349 -112.11949825 961.31697559 C-113.08508063 961.32280779 -114.05066301 961.32863998 -115.04550546 961.33464891 C-116.11386009 961.33086958 -117.18221472 961.32709026 -118.28294373 961.32319641 C-119.41211891 961.32702196 -120.54129409 961.33084751 -121.7046867 961.33478898 C-125.51467805 961.34516467 -129.32451997 961.34111808 -133.13452148 961.3371582 C-135.85585469 961.34040685 -138.57717941 961.34661961 -141.29850769 961.35264587 C-147.94077833 961.36542301 -154.5830086 961.36718255 -161.22528946 961.36484561 C-166.62704043 961.36306443 -172.02877913 961.36480782 -177.43052864 961.36907005 C-178.19863213 961.36966524 -178.96673563 961.37026043 -179.75811498 961.37087366 C-181.31849487 961.3720854 -182.87887476 961.37329953 -184.43925465 961.37451603 C-199.08975711 961.3854047 -213.74023658 961.38322374 -228.39074034 961.37713119 C-241.7818539 961.37196975 -255.17289455 961.38319463 -268.56399368 961.40222941 C-282.31523792 961.42162593 -296.06644769 961.42986006 -309.81770569 961.42610615 C-317.53720595 961.42419572 -325.25664426 961.4266656 -332.97613335 961.44082069 C-339.55352615 961.45275915 -346.13081896 961.45411243 -352.7082132 961.44203053 C-356.06151283 961.43615687 -359.41448067 961.43663877 -362.76779175 961.44703293 C-366.41176376 961.45751121 -370.05524873 961.44939007 -373.69920349 961.4367218 C-374.74748162 961.44409609 -375.79575975 961.45147037 -376.87580389 961.45906812 C-390.8608597 961.35716863 -403.00695519 956.67621285 -413.1875 946.9375 C-415.89928972 944.17994168 -417.28620018 941.71448662 -418.5625 938.0625 C-419.2225 938.0625 -419.8825 938.0625 -420.5625 938.0625 C-427.85311109 923.94234413 -429.00849536 910.51438726 -428.92326355 894.97854614 C-428.92457426 893.18454822 -428.92720555 891.39055087 -428.93103105 889.59655654 C-428.93769578 884.70263271 -428.92579902 879.80890821 -428.91069686 874.91500974 C-428.89768246 869.62413654 -428.90212977 864.33327363 -428.90440369 859.04238892 C-428.90597302 849.88744593 -428.89659946 840.73256733 -428.87969017 831.57764053 C-428.85525849 818.34133405 -428.84749064 805.10505855 -428.8437262 791.86873196 C-428.83716825 770.39114873 -428.81722491 748.91359978 -428.78881836 727.43603516 C-428.76126079 706.57861502 -428.74003552 685.72120421 -428.72729492 664.86376953 C-428.72650675 663.57706557 -428.72571858 662.29036161 -428.72490653 660.96466662 C-428.72099128 654.50933678 -428.71720018 648.05400687 -428.71347082 641.59867692 C-428.68239536 588.08659426 -428.62957746 534.57454881 -428.5625 481.0625 C-429.84845062 481.06472061 -431.13440125 481.06694122 -432.45932007 481.06922913 C-444.55536775 481.08946689 -456.65141202 481.10447522 -468.74747276 481.11431217 C-474.96674681 481.11953938 -481.18600723 481.1266341 -487.40527344 481.13793945 C-493.40284993 481.14877407 -499.40041329 481.15477806 -505.39799881 481.15737724 C-507.69062126 481.15923045 -509.98324295 481.16284908 -512.27585983 481.16823006 C-515.47737962 481.17544807 -518.67884453 481.17649061 -521.88037109 481.17602539 C-522.83630661 481.17962067 -523.79224213 481.18321594 -524.77714539 481.18692017 C-525.64655258 481.1855455 -526.51595978 481.18417084 -527.41171265 481.18275452 C-528.16942648 481.18367631 -528.92714031 481.1845981 -529.70781517 481.18554783 C-531.5625 481.0625 -531.5625 481.0625 -533.5625 480.0625 C-533.2325 479.0725 -532.9025 478.0825 -532.5625 477.0625 C-531.9025 477.0625 -531.2425 477.0625 -530.5625 477.0625 C-530.5625 476.4025 -530.5625 475.7425 -530.5625 475.0625 C-529.1015625 473.5546875 -529.1015625 473.5546875 -527.1875 471.9375 C-526.24777344 471.12925781 -526.24777344 471.12925781 -525.2890625 470.3046875 C-523.5625 469.0625 -523.5625 469.0625 -521.5625 469.0625 C-521.5625 468.4025 -521.5625 467.7425 -521.5625 467.0625 C-519.91796875 465.37109375 -519.91796875 465.37109375 -517.75 463.5 C-517.04230469 462.87996094 -516.33460938 462.25992187 -515.60546875 461.62109375 C-513.5625 460.0625 -513.5625 460.0625 -510.5625 459.0625 C-510.5625 458.4025 -510.5625 457.7425 -510.5625 457.0625 C-509.9025 457.0625 -509.2425 457.0625 -508.5625 457.0625 C-508.5625 456.4025 -508.5625 455.7425 -508.5625 455.0625 C-506.86975716 453.49817213 -505.10680148 452.00921428 -503.3125 450.5625 C-501.85070312 449.37140625 -501.85070312 449.37140625 -500.359375 448.15625 C-498.11355238 446.47501966 -496.1159197 445.18114101 -493.5625 444.0625 C-493.5625 443.4025 -493.5625 442.7425 -493.5625 442.0625 C-492.9025 442.0625 -492.2425 442.0625 -491.5625 442.0625 C-491.2325 441.0725 -490.9025 440.0825 -490.5625 439.0625 C-489.9025 439.0625 -489.2425 439.0625 -488.5625 439.0625 C-488.5625 438.4025 -488.5625 437.7425 -488.5625 437.0625 C-483.08630952 432.0625 -483.08630952 432.0625 -480.5625 432.0625 C-480.5625 431.4025 -480.5625 430.7425 -480.5625 430.0625 C-479.1015625 428.5546875 -479.1015625 428.5546875 -477.1875 426.9375 C-476.56101562 426.39867187 -475.93453125 425.85984375 -475.2890625 425.3046875 C-473.5625 424.0625 -473.5625 424.0625 -471.5625 424.0625 C-471.5625 423.4025 -471.5625 422.7425 -471.5625 422.0625 C-469.91796875 420.37109375 -469.91796875 420.37109375 -467.75 418.5 C-467.04230469 417.87996094 -466.33460938 417.25992187 -465.60546875 416.62109375 C-463.5625 415.0625 -463.5625 415.0625 -460.5625 414.0625 C-460.5625 413.4025 -460.5625 412.7425 -460.5625 412.0625 C-459.9025 412.0625 -459.2425 412.0625 -458.5625 412.0625 C-458.5625 411.4025 -458.5625 410.7425 -458.5625 410.0625 C-456.86975716 408.49817213 -455.10680148 407.00921428 -453.3125 405.5625 C-451.85070312 404.37140625 -451.85070312 404.37140625 -450.359375 403.15625 C-448.11355238 401.47501966 -446.1159197 400.18114101 -443.5625 399.0625 C-443.5625 398.4025 -443.5625 397.7425 -443.5625 397.0625 C-442.9025 397.0625 -442.2425 397.0625 -441.5625 397.0625 C-441.2325 396.0725 -440.9025 395.0825 -440.5625 394.0625 C-439.9025 394.0625 -439.2425 394.0625 -438.5625 394.0625 C-438.5625 393.4025 -438.5625 392.7425 -438.5625 392.0625 C-433.08630952 387.0625 -433.08630952 387.0625 -430.5625 387.0625 C-430.5625 386.4025 -430.5625 385.7425 -430.5625 385.0625 C-429.1015625 383.5546875 -429.1015625 383.5546875 -427.1875 381.9375 C-426.24777344 381.12925781 -426.24777344 381.12925781 -425.2890625 380.3046875 C-423.5625 379.0625 -423.5625 379.0625 -421.5625 379.0625 C-421.5625 378.4025 -421.5625 377.7425 -421.5625 377.0625 C-419.91796875 375.37109375 -419.91796875 375.37109375 -417.75 373.5 C-417.04230469 372.87996094 -416.33460938 372.25992187 -415.60546875 371.62109375 C-413.5625 370.0625 -413.5625 370.0625 -410.5625 369.0625 C-410.5625 368.4025 -410.5625 367.7425 -410.5625 367.0625 C-409.9025 367.0625 -409.2425 367.0625 -408.5625 367.0625 C-408.5625 366.4025 -408.5625 365.7425 -408.5625 365.0625 C-406.86975716 363.49817213 -405.10680148 362.00921428 -403.3125 360.5625 C-402.33796875 359.7684375 -401.3634375 358.974375 -400.359375 358.15625 C-398.11355238 356.47501966 -396.1159197 355.18114101 -393.5625 354.0625 C-393.5625 353.4025 -393.5625 352.7425 -393.5625 352.0625 C-392.9025 352.0625 -392.2425 352.0625 -391.5625 352.0625 C-391.2325 351.0725 -390.9025 350.0825 -390.5625 349.0625 C-389.9025 349.0625 -389.2425 349.0625 -388.5625 349.0625 C-388.5625 348.4025 -388.5625 347.7425 -388.5625 347.0625 C-383.08630952 342.0625 -383.08630952 342.0625 -380.5625 342.0625 C-380.5625 341.4025 -380.5625 340.7425 -380.5625 340.0625 C-379.1015625 338.5546875 -379.1015625 338.5546875 -377.1875 336.9375 C-376.56101562 336.39867187 -375.93453125 335.85984375 -375.2890625 335.3046875 C-373.5625 334.0625 -373.5625 334.0625 -371.5625 334.0625 C-371.5625 333.4025 -371.5625 332.7425 -371.5625 332.0625 C-369.91796875 330.37109375 -369.91796875 330.37109375 -367.75 328.5 C-367.04230469 327.87996094 -366.33460938 327.25992187 -365.60546875 326.62109375 C-363.5625 325.0625 -363.5625 325.0625 -360.5625 324.0625 C-360.5625 323.4025 -360.5625 322.7425 -360.5625 322.0625 C-359.9025 322.0625 -359.2425 322.0625 -358.5625 322.0625 C-358.5625 321.4025 -358.5625 320.7425 -358.5625 320.0625 C-356.86975716 318.49817213 -355.10680148 317.00921428 -353.3125 315.5625 C-352.33796875 314.7684375 -351.3634375 313.974375 -350.359375 313.15625 C-348.11355238 311.47501966 -346.1159197 310.18114101 -343.5625 309.0625 C-343.5625 308.4025 -343.5625 307.7425 -343.5625 307.0625 C-342.9025 307.0625 -342.2425 307.0625 -341.5625 307.0625 C-341.2325 306.0725 -340.9025 305.0825 -340.5625 304.0625 C-339.9025 304.0625 -339.2425 304.0625 -338.5625 304.0625 C-338.5625 303.4025 -338.5625 302.7425 -338.5625 302.0625 C-336.86346977 300.54509024 -335.10177277 299.097372 -333.3125 297.6875 C-330.50936688 295.47020687 -327.82548803 293.3319248 -325.328125 290.7734375 C-323.5625 289.0625 -323.5625 289.0625 -321.5625 289.0625 C-321.5625 288.4025 -321.5625 287.7425 -321.5625 287.0625 C-319.91796875 285.37109375 -319.91796875 285.37109375 -317.75 283.5 C-317.04230469 282.87996094 -316.33460938 282.25992187 -315.60546875 281.62109375 C-313.5625 280.0625 -313.5625 280.0625 -310.5625 279.0625 C-310.5625 278.4025 -310.5625 277.7425 -310.5625 277.0625 C-309.9025 277.0625 -309.2425 277.0625 -308.5625 277.0625 C-308.5625 276.4025 -308.5625 275.7425 -308.5625 275.0625 C-306.86975716 273.49817213 -305.10680148 272.00921428 -303.3125 270.5625 C-302.33796875 269.7684375 -301.3634375 268.974375 -300.359375 268.15625 C-298.11355238 266.47501966 -296.1159197 265.18114101 -293.5625 264.0625 C-293.5625 263.4025 -293.5625 262.7425 -293.5625 262.0625 C-292.9025 262.0625 -292.2425 262.0625 -291.5625 262.0625 C-291.2325 261.0725 -290.9025 260.0825 -290.5625 259.0625 C-289.9025 259.0625 -289.2425 259.0625 -288.5625 259.0625 C-288.5625 258.4025 -288.5625 257.7425 -288.5625 257.0625 C-286.86346977 255.54509024 -285.10177277 254.097372 -283.3125 252.6875 C-280.50936688 250.47020687 -277.82548803 248.3319248 -275.328125 245.7734375 C-273.5625 244.0625 -273.5625 244.0625 -271.5625 244.0625 C-271.5625 243.4025 -271.5625 242.7425 -271.5625 242.0625 C-269.91796875 240.37109375 -269.91796875 240.37109375 -267.75 238.5 C-267.04230469 237.87996094 -266.33460938 237.25992188 -265.60546875 236.62109375 C-263.5625 235.0625 -263.5625 235.0625 -260.5625 234.0625 C-260.5625 233.4025 -260.5625 232.7425 -260.5625 232.0625 C-259.9025 232.0625 -259.2425 232.0625 -258.5625 232.0625 C-258.5625 231.4025 -258.5625 230.7425 -258.5625 230.0625 C-256.86975716 228.49817213 -255.10680148 227.00921428 -253.3125 225.5625 C-252.33796875 224.7684375 -251.3634375 223.974375 -250.359375 223.15625 C-248.11355238 221.47501966 -246.1159197 220.18114101 -243.5625 219.0625 C-243.5625 218.4025 -243.5625 217.7425 -243.5625 217.0625 C-242.9025 217.0625 -242.2425 217.0625 -241.5625 217.0625 C-241.2325 216.0725 -240.9025 215.0825 -240.5625 214.0625 C-239.9025 214.0625 -239.2425 214.0625 -238.5625 214.0625 C-238.5625 213.4025 -238.5625 212.7425 -238.5625 212.0625 C-236.86346977 210.54509024 -235.10177277 209.097372 -233.3125 207.6875 C-230.50936688 205.47020687 -227.82548803 203.3319248 -225.328125 200.7734375 C-223.5625 199.0625 -223.5625 199.0625 -221.5625 199.0625 C-221.5625 198.4025 -221.5625 197.7425 -221.5625 197.0625 C-219.91796875 195.37109375 -219.91796875 195.37109375 -217.75 193.5 C-217.04230469 192.87996094 -216.33460938 192.25992188 -215.60546875 191.62109375 C-213.5625 190.0625 -213.5625 190.0625 -210.5625 189.0625 C-210.5625 188.4025 -210.5625 187.7425 -210.5625 187.0625 C-209.9025 187.0625 -209.2425 187.0625 -208.5625 187.0625 C-208.5625 186.4025 -208.5625 185.7425 -208.5625 185.0625 C-206.86975716 183.49817213 -205.10680148 182.00921428 -203.3125 180.5625 C-202.33796875 179.7684375 -201.3634375 178.974375 -200.359375 178.15625 C-198.11355238 176.47501966 -196.1159197 175.18114101 -193.5625 174.0625 C-193.5625 173.4025 -193.5625 172.7425 -193.5625 172.0625 C-192.9025 172.0625 -192.2425 172.0625 -191.5625 172.0625 C-191.2325 171.0725 -190.9025 170.0825 -190.5625 169.0625 C-189.9025 169.0625 -189.2425 169.0625 -188.5625 169.0625 C-188.5625 168.4025 -188.5625 167.7425 -188.5625 167.0625 C-186.86346977 165.54509024 -185.10177277 164.097372 -183.3125 162.6875 C-180.50936688 160.47020687 -177.82548803 158.3319248 -175.328125 155.7734375 C-173.5625 154.0625 -173.5625 154.0625 -171.5625 154.0625 C-171.5625 153.4025 -171.5625 152.7425 -171.5625 152.0625 C-169.91796875 150.37109375 -169.91796875 150.37109375 -167.75 148.5 C-167.04230469 147.87996094 -166.33460938 147.25992188 -165.60546875 146.62109375 C-163.5625 145.0625 -163.5625 145.0625 -160.5625 144.0625 C-160.5625 143.4025 -160.5625 142.7425 -160.5625 142.0625 C-159.9025 142.0625 -159.2425 142.0625 -158.5625 142.0625 C-158.5625 141.4025 -158.5625 140.7425 -158.5625 140.0625 C-156.86975716 138.49817213 -155.10680148 137.00921428 -153.3125 135.5625 C-152.33796875 134.7684375 -151.3634375 133.974375 -150.359375 133.15625 C-148.11355238 131.47501966 -146.1159197 130.18114101 -143.5625 129.0625 C-143.5625 128.4025 -143.5625 127.7425 -143.5625 127.0625 C-142.9025 127.0625 -142.2425 127.0625 -141.5625 127.0625 C-141.2325 126.0725 -140.9025 125.0825 -140.5625 124.0625 C-139.9025 124.0625 -139.2425 124.0625 -138.5625 124.0625 C-138.5625 123.4025 -138.5625 122.7425 -138.5625 122.0625 C-136.86346977 120.54509024 -135.10177277 119.097372 -133.3125 117.6875 C-130.50936688 115.47020687 -127.82548803 113.3319248 -125.328125 110.7734375 C-123.5625 109.0625 -123.5625 109.0625 -121.5625 109.0625 C-121.5625 108.4025 -121.5625 107.7425 -121.5625 107.0625 C-119.91796875 105.37109375 -119.91796875 105.37109375 -117.75 103.5 C-117.04230469 102.87996094 -116.33460938 102.25992188 -115.60546875 101.62109375 C-113.5625 100.0625 -113.5625 100.0625 -110.5625 99.0625 C-110.5625 98.4025 -110.5625 97.7425 -110.5625 97.0625 C-109.9025 97.0625 -109.2425 97.0625 -108.5625 97.0625 C-108.5625 96.4025 -108.5625 95.7425 -108.5625 95.0625 C-106.86975716 93.49817213 -105.10680148 92.00921428 -103.3125 90.5625 C-102.33796875 89.7684375 -101.3634375 88.974375 -100.359375 88.15625 C-98.11355238 86.47501966 -96.1159197 85.18114101 -93.5625 84.0625 C-93.5625 83.4025 -93.5625 82.7425 -93.5625 82.0625 C-92.9025 82.0625 -92.2425 82.0625 -91.5625 82.0625 C-91.2325 81.0725 -90.9025 80.0825 -90.5625 79.0625 C-89.9025 79.0625 -89.2425 79.0625 -88.5625 79.0625 C-88.5625 78.4025 -88.5625 77.7425 -88.5625 77.0625 C-86.86346977 75.54509024 -85.10177277 74.097372 -83.3125 72.6875 C-80.50936688 70.47020687 -77.82548803 68.3319248 -75.328125 65.7734375 C-73.5625 64.0625 -73.5625 64.0625 -71.5625 64.0625 C-71.5625 63.4025 -71.5625 62.7425 -71.5625 62.0625 C-69.91796875 60.37109375 -69.91796875 60.37109375 -67.75 58.5 C-67.04230469 57.87996094 -66.33460938 57.25992188 -65.60546875 56.62109375 C-63.5625 55.0625 -63.5625 55.0625 -60.5625 54.0625 C-60.5625 53.4025 -60.5625 52.7425 -60.5625 52.0625 C-59.9025 52.0625 -59.2425 52.0625 -58.5625 52.0625 C-58.5625 51.4025 -58.5625 50.7425 -58.5625 50.0625 C-56.86975716 48.49817213 -55.10680148 47.00921428 -53.3125 45.5625 C-52.33796875 44.7684375 -51.3634375 43.974375 -50.359375 43.15625 C-48.11355238 41.47501966 -46.1159197 40.18114101 -43.5625 39.0625 C-43.5625 38.4025 -43.5625 37.7425 -43.5625 37.0625 C-42.9025 37.0625 -42.2425 37.0625 -41.5625 37.0625 C-41.2325 36.0725 -40.9025 35.0825 -40.5625 34.0625 C-39.9025 34.0625 -39.2425 34.0625 -38.5625 34.0625 C-38.5625 33.4025 -38.5625 32.7425 -38.5625 32.0625 C-36.86346977 30.54509024 -35.10177277 29.097372 -33.3125 27.6875 C-30.50936688 25.47020687 -27.82548803 23.3319248 -25.328125 20.7734375 C-23.5625 19.0625 -23.5625 19.0625 -21.5625 19.0625 C-21.5625 18.4025 -21.5625 17.7425 -21.5625 17.0625 C-19.91796875 15.37109375 -19.91796875 15.37109375 -17.75 13.5 C-17.04230469 12.87996094 -16.33460938 12.25992188 -15.60546875 11.62109375 C-13.5625 10.0625 -13.5625 10.0625 -10.5625 9.0625 C-10.5625 8.4025 -10.5625 7.7425 -10.5625 7.0625 C-9.9025 7.0625 -9.2425 7.0625 -8.5625 7.0625 C-8.5625 6.4025 -8.5625 5.7425 -8.5625 5.0625 C-3.5875 0.0875 -3.5875 0.0875 0 0 Z " fill="#000000" transform="translate(640.5625,159.9375)"/>
</svg>
